<?xml version="1.0" standalone="no"?>
<svg viewBox="0 0 200 200" xmlns="http://www.w3.org/2000/svg">
  <path fill="#0F62FE" d="M42.9,-67.9C57,-66.1,71,-57.6,79.3,-45.1C87.7,-32.7,90.4,-16.3,84.1,-3.6C77.9,9.1,62.5,18.1,54.2,30.8C46,43.4,44.9,59.6,37,69.1C29.2,78.6,14.6,81.5,-1,83.2C-16.5,84.9,-33,85.3,-45,78.2C-57,71,-64.4,56.3,-66.3,42C-68.1,27.7,-64.4,13.8,-62.7,1C-61,-11.9,-61.3,-23.7,-57.4,-34.5C-53.5,-45.2,-45.4,-54.8,-35.1,-58.8C-24.8,-62.7,-12.4,-61,1,-62.7C14.4,-64.4,28.8,-69.6,42.9,-67.9Z" transform="translate(100 100)" />
</svg>
